<?xml version="1.0" encoding="UTF-8" standalone="no"?>
<!-- Created with Inkscape (http://www.inkscape.org/) -->

<svg
   xmlns:dc="http://purl.org/dc/elements/1.1/"
   xmlns:cc="http://creativecommons.org/ns#"
   xmlns:rdf="http://www.w3.org/1999/02/22-rdf-syntax-ns#"
   xmlns:svg="http://www.w3.org/2000/svg"
   xmlns="http://www.w3.org/2000/svg"
   xmlns:sodipodi="http://sodipodi.sourceforge.net/DTD/sodipodi-0.dtd"
   xmlns:inkscape="http://www.inkscape.org/namespaces/inkscape"
   width="270mm"
   height="270mm"
   viewBox="0 0 270 270"
   version="1.1"
   id="svg909"
   inkscape:version="0.92.5 (2060ec1f9f, 2020-04-08)"
   sodipodi:docname="head_image.svg">
  <defs
     id="defs903">
    <inkscape:path-effect
       effect="bspline"
       id="path-effect1515"
       is_visible="true"
       weight="33.333333"
       steps="2"
       helper_size="0"
       apply_no_weight="true"
       apply_with_weight="true"
       only_selected="false" />
    <inkscape:path-effect
       effect="bspline"
       id="path-effect883-7"
       is_visible="true"
       weight="33.333333"
       steps="2"
       helper_size="0"
       apply_no_weight="true"
       apply_with_weight="true"
       only_selected="false" />
    <inkscape:path-effect
       effect="bspline"
       id="path-effect883"
       is_visible="true"
       weight="33.333333"
       steps="2"
       helper_size="0"
       apply_no_weight="true"
       apply_with_weight="true"
       only_selected="false" />
    <inkscape:path-effect
       effect="bspline"
       id="path-effect819-3"
       is_visible="true"
       weight="33.333333"
       steps="2"
       helper_size="0"
       apply_no_weight="true"
       apply_with_weight="true"
       only_selected="false" />
    <inkscape:path-effect
       effect="bspline"
       id="path-effect819"
       is_visible="true"
       weight="33.333333"
       steps="2"
       helper_size="0"
       apply_no_weight="true"
       apply_with_weight="true"
       only_selected="false" />
  </defs>
  <sodipodi:namedview
     id="base"
     pagecolor="#ffffff"
     bordercolor="#666666"
     borderopacity="1.0"
     inkscape:pageopacity="0.0"
     inkscape:pageshadow="2"
     inkscape:zoom="0.35355339"
     inkscape:cx="1069.041"
     inkscape:cy="333.68204"
     inkscape:document-units="mm"
     inkscape:current-layer="layer1"
     showgrid="false"
     inkscape:window-width="1848"
     inkscape:window-height="1016"
     inkscape:window-x="72"
     inkscape:window-y="27"
     inkscape:window-maximized="1" />
  <metadata
     id="metadata906">
    <rdf:RDF>
      <cc:Work
         rdf:about="">
        <dc:format>image/svg+xml</dc:format>
        <dc:type
           rdf:resource="http://purl.org/dc/dcmitype/StillImage" />
        <dc:title></dc:title>
      </cc:Work>
    </rdf:RDF>
  </metadata>
  <g
     inkscape:label="Layer 1"
     inkscape:groupmode="layer"
     id="layer1"
     transform="translate(0,-27)">
    <rect
       style="opacity:1;vector-effect:none;fill:#97f7d7;fill-opacity:1;fill-rule:nonzero;stroke:#97f7d7;stroke-width:0.35470888;stroke-linecap:round;stroke-linejoin:round;stroke-miterlimit:4;stroke-dasharray:none;stroke-dashoffset:0;stroke-opacity:1;paint-order:normal"
       id="rect1509"
       width="272.72629"
       height="269.62909"
       x="0.18999775"
       y="27.194611"
       inkscape:export-filename="/home/cbtxs/head_image.png"
       inkscape:export-xdpi="187.20244"
       inkscape:export-ydpi="187.20244" />
    <path
       transform="matrix(0.27210844,0,0,0.27146042,12.36961,38.801881)"
       style="fill:#000000;fill-opacity:1;stroke:#000000;stroke-width:1px;stroke-linecap:butt;stroke-linejoin:miter;stroke-opacity:1"
       d="m 450.027,11.963936 c 0,0 -169.34374,433.846994 -169.34374,433.846994 -3.21807,7.5999 -6.43562,15.1986 -13.59362,26.63739 -7.158,11.43878 -20.47349,29.7686 -29.31127,39.42283 -8.83779,9.65423 -22.02337,20.27312 -37.56295,26.10122 -15.53959,5.82811 -35.62585,8.63152 -53.38266,5.90631 -17.75682,-2.72521 -33.18756,-10.98061 -48.616797,-19.23521 8.348807,23.86361 16.697407,47.72665 19.309857,70.64837 2.61245,22.92173 -0.51215,44.90445 -4.0381,60.92523 -3.52594,16.02078 -7.45552,26.08774 -11.3842,36.15241 11.91229,-2.57291 23.82582,-5.14609 35.20756,-2.95133 11.38174,2.19476 23.93727,10.24952 35.98058,20.08864 12.04332,9.83913 31.70296,28.01313 54.0583,43.1178 22.35533,15.10468 45.06504,26.43975 69.80522,36.95782 24.74019,10.51807 46.61856,18.02073 67.66803,23.70918 21.04947,5.68845 41.73872,9.61919 62.08723,13.48519 0,0 0,0 0,0 -21.9,-7.04866 -43.79909,-14.09704 -66.4479,-22.78231 -22.64881,-8.68528 -46.04568,-19.00694 -65.62065,-38.01337 -19.57497,-19.00643 -35.32894,-46.69943 -36.41697,-75.39238 -1.08804,-28.69294 12.48794,-58.38989 46.88835,-148.44136 34.4004,-90.05147 89.61809,-240.43814 144.83924,-390.83423 0,0 0,0 0,0 0,0 0,0 0,0 0,0 0,0 0,0 0,0 0,0 0,0 0,0 0,0 0,0 0,0 -0.12551,-139.349194 -0.12551,-139.349194 z"
       id="path817"
       inkscape:connector-curvature="0"
       inkscape:path-effect="#path-effect819"
       inkscape:original-d="M 450.027,11.963936 280.68326,445.81093 c 0,0 -6.43513,15.19881 -9.6542,22.79971 -11.09724,15.27659 -24.41273,33.60641 -33.2947,45.83275 -8.79387,7.08187 -21.97945,17.70076 -32.9719,26.55362 -20.08675,2.80262 -40.17301,5.60604 -60.25879,8.41025 -15.42709,-8.25498 -46.287707,-24.76379 -46.287707,-24.76379 0,0 16.698607,47.72623 25.046417,71.59084 -3.12327,21.97938 -6.24787,43.9621 -9.37281,65.94115 -3.92726,10.0626 -11.78605,30.19402 -11.78605,30.19402 0,0 23.82566,-5.14684 35.73687,-7.71874 10.85318,6.96101 23.4087,15.01577 32.55676,20.88617 14.93879,13.80797 34.59843,31.98198 53.15588,49.139 26.15286,13.05216 48.86257,24.38723 74.90525,37.38739 23.4375,8.03598 45.31587,15.53863 67.40664,23.11547 20.00798,3.80012 61.04552,11.59801 61.04552,11.59801 v 0 c 0,0 -43.79871,-14.09823 -65.7,-21.14599 -23.39618,-10.3228 -46.79305,-20.64446 -70.19062,-30.965 -15.75171,-27.69179 -31.50568,-55.3848 -47.25874,-83.07344 13.57624,-29.69637 27.15222,-59.39332 40.72798,-89.09095 55.22515,-150.40531 165.66345,-451.18827 165.66345,-451.18827 v 0 0 0 0 0 z"
       sodipodi:nodetypes="cccccccccccccccccccccccccccc" />
    <path
       transform="matrix(-0.27210844,0,0,0.27146042,257.36627,38.801881)"
       style="fill:#000000;fill-opacity:1;stroke:#000000;stroke-width:1px;stroke-linecap:butt;stroke-linejoin:miter;stroke-opacity:1"
       d="m 450.027,11.963936 c 0,0 -169.34374,433.846994 -169.34374,433.846994 -3.21807,7.5999 -6.43562,15.1986 -13.59362,26.63739 -7.158,11.43878 -20.47349,29.7686 -29.31127,39.42283 -8.83779,9.65423 -22.02337,20.27312 -37.56295,26.10122 -15.53959,5.82811 -35.62585,8.63152 -53.38266,5.90631 -17.75682,-2.72521 -33.18756,-10.98061 -48.616797,-19.23521 8.348807,23.86361 16.697407,47.72665 19.309857,70.64837 2.61245,22.92173 -0.51215,44.90445 -4.0381,60.92523 -3.52594,16.02078 -7.45552,26.08774 -11.3842,36.15241 11.91229,-2.57291 23.82582,-5.14609 35.20756,-2.95133 11.38174,2.19476 23.93727,10.24952 35.98058,20.08864 12.04332,9.83913 31.70296,28.01313 54.0583,43.1178 22.35533,15.10468 45.06504,26.43975 69.80522,36.95782 24.74019,10.51807 46.61856,18.02073 67.66803,23.70918 21.04947,5.68845 41.73872,9.61919 62.08723,13.48519 0,0 0,0 0,0 -21.9,-7.04866 -43.79909,-14.09704 -66.4479,-22.78231 -22.64881,-8.68528 -46.04568,-19.00694 -65.62065,-38.01337 -19.57497,-19.00643 -35.32894,-46.69943 -36.36041,-75.5766 -1.03148,-28.87716 12.65734,-58.94195 47.06779,-148.99389 34.41045,-90.05195 89.53459,-240.06998 144.66222,-390.09748 0,0 0,0 0,0 0,0 0,0 0,0 0,0 0,0 0,0 0,0 0,0 0,0 0,0 0,0 0,0 0,0 -0.18449,-139.349194 -0.18449,-139.349194 z"
       id="path817-6"
       inkscape:connector-curvature="0"
       inkscape:path-effect="#path-effect819-3"
       inkscape:original-d="M 450.027,11.963936 280.68326,445.81093 c 0,0 -6.43513,15.19881 -9.6542,22.79971 -11.09724,15.27659 -24.41273,33.60641 -33.2947,45.83275 -8.79387,7.08187 -21.97945,17.70076 -32.9719,26.55362 -20.08675,2.80262 -40.17301,5.60604 -60.25879,8.41025 -15.42709,-8.25498 -46.287707,-24.76379 -46.287707,-24.76379 0,0 16.698607,47.72623 25.046417,71.59084 -3.12327,21.97938 -6.24787,43.9621 -9.37281,65.94115 -3.92726,10.0626 -11.78605,30.19402 -11.78605,30.19402 0,0 23.82566,-5.14684 35.73687,-7.71874 10.85318,6.96101 23.4087,15.01577 32.55676,20.88617 14.93879,13.80797 34.59843,31.98198 53.15588,49.139 26.15286,13.05216 48.86257,24.38723 74.90525,37.38739 23.4375,8.03598 45.31587,15.53863 67.40664,23.11547 20.00798,3.80012 61.04552,11.59801 61.04552,11.59801 v 0 c 0,0 -43.79871,-14.09823 -65.7,-21.14599 -23.39618,-10.3228 -46.79305,-20.64446 -70.19062,-30.965 -15.75171,-27.69179 -31.50568,-55.3848 -47.25874,-83.07344 13.68775,-30.06554 27.37657,-60.13033 41.06753,-90.19672 55.12993,-150.0374 165.38288,-450.0825 165.38288,-450.0825 v 0 0 0 0 0 z"
       sodipodi:nodetypes="cccccccccccccccccccccccccccc" />
    <path
       transform="matrix(0.27210844,0,0,0.27146042,12.36961,38.801881)"
       style="fill:#000000;fill-opacity:1;stroke:#000000;stroke-width:1px;stroke-linecap:butt;stroke-linejoin:miter;stroke-opacity:1"
       d="m 450.758,815.81571 c -0.90143,4.19601 -1.80239,8.3898 -3.90528,12.69129 -2.10289,4.30149 -5.40677,8.70624 -9.87909,12.72344 -4.47233,4.0172 -10.11601,7.64868 -16.22258,10.42307 -6.10658,2.77439 -12.67411,4.69045 -22.19804,6.48471 -9.52393,1.79427 -22.00965,3.46747 -38.11126,2.56292 -16.10162,-0.90455 -35.81928,-4.38682 -56.16286,-9.79137 -20.34357,-5.40455 -41.31523,-12.73214 -65.1954,-24.75312 -23.88016,-12.02098 -50.66873,-28.73531 -70.73461,-42.9056 -20.06588,-14.1703 -33.40932,-25.79677 -46.42261,-38.16016 -13.01329,-12.3634 -25.696325,-25.46361 -32.037821,-32.01369 -6.341496,-6.55008 -6.341496,-6.55008 -6.341496,-6.55008 13.168622,15.41318 26.337227,30.82634 41.160727,46.32346 14.82351,15.49713 31.30193,31.07822 51.53607,47.06381 20.23414,15.9856 44.22396,32.37566 70.45915,46.41552 26.23518,14.03985 54.71707,25.73029 79.34575,33.25741 24.62868,7.52713 45.40621,10.89152 61.04154,12.77056 15.63534,1.87905 26.1331,2.27351 35.87481,2.52999 9.74172,0.25649 18.72377,0.37496 27.70763,0.49345 0,0 0.0854,-79.56561 0.0854,-79.56561 z"
       id="path881"
       inkscape:connector-curvature="0"
       inkscape:path-effect="#path-effect883"
       inkscape:original-d="m 450.758,815.81571 c 0,0 -1.80164,8.38996 -2.7043,12.58802 -3.30371,4.40488 -6.60759,8.80963 -9.91164,13.2143 -5.64093,3.62935 -11.2846,7.26084 -16.93001,10.89379 -6.56777,1.91542 -13.1353,3.83148 -19.70257,5.74818 -12.48051,1.67164 -24.96623,3.34484 -37.45164,5.01887 -19.71751,-3.48342 -39.43517,-6.96569 -59.15301,-10.44682 -20.96909,-7.32804 -41.94075,-14.65562 -62.91293,-21.98204 -26.78784,-16.71551 -53.57641,-33.42984 -80.36573,-50.14302 -13.34224,-11.6273 -26.68568,-23.25377 -40.03009,-34.87922 -12.68209,-13.10126 -25.365118,-26.20147 -38.049127,-39.30065 0.001,-10e-4 0,0 0,0 0,0 26.338297,30.82542 39.505867,46.23954 16.47934,15.58002 32.95776,31.16111 49.43524,46.74326 23.99062,16.38892 47.98044,32.77898 71.96857,49.16958 28.48195,11.68905 56.96383,23.37949 85.44424,35.07073 20.77664,3.36308 41.55417,6.72747 62.32691,10.09225 10.49779,0.39342 20.99555,0.78787 31.49327,1.18336 8.98568,0.1175 26.95158,0.35548 26.95158,0.35548 z"
       sodipodi:nodetypes="cccccccccccccccscccc" />
    <path
       transform="matrix(-0.27210844,0,0,0.27146042,257.63328,38.801881)"
       style="fill:#000000;fill-opacity:1;stroke:#000000;stroke-width:1px;stroke-linecap:butt;stroke-linejoin:miter;stroke-opacity:1"
       d="m 450.758,815.81571 c -0.90143,4.19601 -1.80239,8.3898 -3.90528,12.69129 -2.10289,4.30149 -5.40677,8.70624 -9.87909,12.72344 -4.47233,4.0172 -10.11601,7.64868 -16.22258,10.42307 -6.10658,2.77439 -12.67411,4.69045 -22.19804,6.48471 -9.52393,1.79427 -22.00965,3.46747 -38.11126,2.56292 -16.10162,-0.90455 -35.81928,-4.38682 -56.16286,-9.79137 -20.34357,-5.40455 -41.31523,-12.73214 -65.1954,-24.75312 -23.88016,-12.02098 -50.66873,-28.73531 -70.73461,-42.9056 -20.06588,-14.1703 -33.40932,-25.79677 -46.42261,-38.16016 -13.01329,-12.3634 -25.696325,-25.46361 -32.037821,-32.01369 -6.341496,-6.55008 -6.341496,-6.55008 -6.341496,-6.55008 13.168622,15.41318 26.337227,30.82634 41.160727,46.32346 14.82351,15.49713 31.30193,31.07822 51.53607,47.06381 20.23414,15.9856 44.22396,32.37566 70.45915,46.41552 26.23518,14.03985 54.71707,25.73029 79.34575,33.25741 24.62868,7.52713 45.40621,10.89152 61.04154,12.77056 15.63534,1.87905 26.1331,2.27351 35.87481,2.52999 9.74172,0.25649 18.72377,0.37496 27.70763,0.49345 0,0 0.0854,-79.56561 0.0854,-79.56561 z"
       id="path881-5"
       inkscape:connector-curvature="0"
       inkscape:path-effect="#path-effect883-7"
       inkscape:original-d="m 450.758,815.81571 c 0,0 -1.80164,8.38996 -2.7043,12.58802 -3.30371,4.40488 -6.60759,8.80963 -9.91164,13.2143 -5.64093,3.62935 -11.2846,7.26084 -16.93001,10.89379 -6.56777,1.91542 -13.1353,3.83148 -19.70257,5.74818 -12.48051,1.67164 -24.96623,3.34484 -37.45164,5.01887 -19.71751,-3.48342 -39.43517,-6.96569 -59.15301,-10.44682 -20.96909,-7.32804 -41.94075,-14.65562 -62.91293,-21.98204 -26.78784,-16.71551 -53.57641,-33.42984 -80.36573,-50.14302 -13.34224,-11.6273 -26.68568,-23.25377 -40.03009,-34.87922 -12.68209,-13.10126 -25.365118,-26.20147 -38.049127,-39.30065 0.001,-10e-4 0,0 0,0 0,0 26.338297,30.82542 39.505867,46.23954 16.47934,15.58002 32.95776,31.16111 49.43524,46.74326 23.99062,16.38892 47.98044,32.77898 71.96857,49.16958 28.48195,11.68905 56.96383,23.37949 85.44424,35.07073 20.77664,3.36308 41.55417,6.72747 62.32691,10.09225 10.49779,0.39342 20.99555,0.78787 31.49327,1.18336 8.98568,0.1175 26.95158,0.35548 26.95158,0.35548 z"
       sodipodi:nodetypes="cccccccccccccccscccc" />
  </g>
</svg>
